<?xml version="1.0" encoding="UTF-8" standalone="no"?>
<svg
   xmlns:dc="http://purl.org/dc/elements/1.1/"
   xmlns:cc="http://creativecommons.org/ns#"
   xmlns:rdf="http://www.w3.org/1999/02/22-rdf-syntax-ns#"
   xmlns:svg="http://www.w3.org/2000/svg"
   xmlns="http://www.w3.org/2000/svg"
   viewBox="0 0 1056 816"
   height="816"
   width="1056"
   xml:space="preserve"
   id="svg3718"
   version="1.1"><metadata
     id="metadata3724"><rdf:RDF><cc:Work
         rdf:about=""><dc:format>image/svg+xml</dc:format><dc:type
           rdf:resource="http://purl.org/dc/dcmitype/StillImage" /><dc:title></dc:title></cc:Work></rdf:RDF></metadata><defs
     id="defs3722"><clipPath
       id="clipPath3736"
       clipPathUnits="userSpaceOnUse"><path
         id="path3734"
         d="M -2,-2 H 474 V 192 H -2 Z" /></clipPath></defs><g
     transform="matrix(1.3333333,0,0,-1.3333333,0,816)"
     id="g3726"><g
       transform="matrix(1,0,0,-1,0,612)"
       id="g3728"><g
         transform="matrix(0.75,0,0,0.75,219,54)"
         id="g3730"><g
           clip-path="url(#clipPath3736)"
           id="g3732"><path
             id="path3738"
             style="fill:#ffffff;fill-opacity:1;fill-rule:nonzero;stroke:none"
             d="M 0,56 H 101 V 191 H 0 Z" /><path
             id="path3740"
             style="fill:#ffffff;fill-opacity:1;fill-rule:nonzero;stroke:none"
             d="m 163,56 h 62 v 27 h -62 z" /><path
             id="path3742"
             style="fill:#ffffff;fill-opacity:1;fill-rule:nonzero;stroke:none"
             d="m 101,83 h 62 v 108 h -62 z" /><path
             id="path3744"
             style="fill:#ffffff;fill-opacity:1;fill-rule:nonzero;stroke:none"
             d="m 225,83 h 124 v 27 H 225 Z" /><path
             id="path3746"
             style="fill:#ffffff;fill-opacity:1;fill-rule:nonzero;stroke:none"
             d="m 411,83 h 62 v 27 h -62 z" /><path
             id="path3748"
             style="fill:#ffffff;fill-opacity:1;fill-rule:nonzero;stroke:none"
             d="m 287,110 h 62 v 54 h -62 z" /><path
             id="path3750"
             style="fill:#ffffff;fill-opacity:1;fill-rule:nonzero;stroke:none"
             d="m 411,110 h 62 v 27 h -62 z" /><path
             id="path3752"
             style="fill:#ffffff;fill-opacity:1;fill-rule:nonzero;stroke:none"
             d="m 163,164 h 248 v 27 H 163 Z" /><path
             id="path3754"
             style="fill:#cccccc;fill-opacity:1;fill-rule:nonzero;stroke:none"
             d="M -1,-1 H 473 V 56 H -1 Z" /><path
             id="path3756"
             style="fill:#6aa84f;fill-opacity:1;fill-rule:nonzero;stroke:none"
             d="m 100,55 h 63 v 28 h -63 z" /><path
             id="path3758"
             style="fill:#ffffff;fill-opacity:1;fill-rule:nonzero;stroke:none"
             d="m 224,55 h 63 v 28 h -63 z" /><path
             id="path3760"
             style="fill:#6aa84f;fill-opacity:1;fill-rule:nonzero;stroke:none"
             d="m 286,55 h 63 v 28 h -63 z" /><path
             id="path3762"
             style="fill:#ffffff;fill-opacity:1;fill-rule:nonzero;stroke:none"
             d="M 348,55 H 473 V 83 H 348 Z" /><path
             id="path3764"
             style="fill:#6aa84f;fill-opacity:1;fill-rule:nonzero;stroke:none"
             d="m 162,82 h 63 v 82 h -63 z" /><path
             id="path3766"
             style="fill:#6aa84f;fill-opacity:1;fill-rule:nonzero;stroke:none"
             d="m 348,82 h 63 v 28 h -63 z" /><path
             id="path3768"
             style="fill:#6aa84f;fill-opacity:1;fill-rule:nonzero;stroke:none"
             d="m 224,109 h 63 v 55 h -63 z" /><path
             id="path3770"
             style="fill:#6aa84f;fill-opacity:1;fill-rule:nonzero;stroke:none"
             d="m 348,109 h 63 v 55 h -63 z" /><path
             id="path3772"
             style="fill:#6aa84f;fill-opacity:1;fill-rule:nonzero;stroke:none"
             d="m 410,136 h 63 v 28 h -63 z" /><path
             id="path3774"
             style="fill:#6aa84f;fill-opacity:1;fill-rule:nonzero;stroke:none"
             d="m 410,163 h 63 v 28 h -63 z" /><g
             id="g3776"><path
               id="path3778"
               style="fill:#000000;fill-opacity:0.14901961;fill-rule:nonzero;stroke:none"
               d="m 0,82 v 0 h 100 v 1 H 0 Z m 0,27 v 0 h 100 v 1 H 0 Z m 0,27 v 0 h 100 v 1 H 0 Z m 0,27 v 0 h 100 v 1 H 0 Z M 163,21 v 0 34 h -1 V 21 Z m 0,35 v 0 26 h -1 V 56 Z m 0,27 v 0 26 h -1 V 83 Z m 0,27 v 0 26 h -1 v -26 z m 0,27 v 0 26 h -1 v -26 z m 0,27 v 0 26 h -1 V 164 Z M 225,21 v 0 34 h -1 V 21 Z m 0,35 v 0 26 h -1 V 56 Z m 0,27 v 0 26 h -1 V 83 Z m 0,27 v 0 26 h -1 v -26 z m 0,27 v 0 26 h -1 v -26 z m 0,27 v 0 26 h -1 V 164 Z M 101,20 v 0 h 185 v 1 H 101 Z m 0,62 v 0 h 185 v 1 H 101 Z M 287,56 v 0 26 h -1 V 56 Z m -186,53 v 0 h 185 v 1 H 101 Z m 0,27 v 0 h 185 v 1 H 101 Z m 0,27 v 0 h 185 v 1 H 101 Z M 349,21 v 0 34 h -1 V 21 Z m 0,35 v 0 26 h -1 V 56 Z m 0,27 v 0 26 h -1 V 83 Z m 0,27 v 0 26 h -1 v -26 z m 0,27 v 0 26 h -1 v -26 z m 0,27 v 0 26 h -1 V 164 Z M 411,21 v 0 34 h -1 V 21 Z m 0,35 v 0 26 h -1 V 56 Z m 0,27 v 0 26 h -1 V 83 Z m 0,27 v 0 26 h -1 v -26 z m 0,27 v 0 26 h -1 v -26 z m 0,27 v 0 26 h -1 V 164 Z M 287,20 v 0 h 185 v 1 H 287 Z m 0,62 v 0 h 185 v 1 H 287 Z m 0,27 v 0 h 185 v 1 H 287 Z m 0,27 v 0 h 185 v 1 H 287 Z m 0,27 v 0 h 185 v 1 H 287 Z" /></g><path
             id="path3780"
             style="fill:none;stroke:#000000;stroke-width:1;stroke-linecap:butt;stroke-linejoin:miter;stroke-miterlimit:10;stroke-dasharray:none;stroke-opacity:1"
             d="m -0.5,-1 v 192 m 101,-192 v 192 m 186,-192 v 57 m 0,26 V 191 M -1,-0.5 H 473 M -1,55.5 H 473 M -1,190.5 H 473 M 472.5,-1 v 192" /><text
             id="text3784"
             style="font-variant:normal;font-weight:bold;font-size:13px;font-family:Arial;-inkscape-font-specification:Arial-BoldMT;writing-mode:lr-tb;fill:#000000;fill-opacity:1;fill-rule:nonzero;stroke:none"
             transform="translate(3,50.245117)"><tspan
               id="tspan3782"
               y="0"
               x="0 10.829 18.056999 22.386 30.316 38.245998">Method</tspan></text>
<text
             id="text3788"
             style="font-variant:normal;font-weight:bold;font-size:13px;font-family:Arial;-inkscape-font-specification:Arial-BoldMT;writing-mode:lr-tb;fill:#000000;fill-opacity:1;fill-rule:nonzero;stroke:none"
             transform="translate(160,15.245117)"><tspan
               id="tspan3786"
               y="0"
               x="0 8.658 15.886 23.114 31.044001 38.973999 46.903999 54.132 59.188999">Secondary</tspan></text>
<text
             id="text3792"
             style="font-variant:normal;font-weight:bold;font-size:13px;font-family:Arial;-inkscape-font-specification:Arial-BoldMT;writing-mode:lr-tb;fill:#000000;fill-opacity:1;fill-rule:nonzero;stroke:none"
             transform="translate(358,15.245117)"><tspan
               id="tspan3790"
               y="0"
               x="0 10.829 18.056999 25.285 29.614 36.841999">Master</tspan></text>
<text
             id="text3796"
             style="font-variant:normal;font-weight:bold;font-size:13px;font-family:Arial;-inkscape-font-specification:Arial-BoldMT;writing-mode:lr-tb;fill:#000000;fill-opacity:1;fill-rule:nonzero;stroke:none"
             transform="translate(117,35.296387)"><tspan
               id="tspan3794"
               y="0"
               x="0 9.3859997 16.614 20.943001">Data</tspan></text>
<text
             id="text3800"
             style="font-variant:normal;font-weight:bold;font-size:13px;font-family:Arial;-inkscape-font-specification:Arial-BoldMT;writing-mode:lr-tb;fill:#000000;fill-opacity:1;fill-rule:nonzero;stroke:none"
             transform="translate(116,50.245117)"><tspan
               id="tspan3798"
               y="0"
               x="0 9.3859997 17.316 21.645">Auth</tspan></text>
<text
             id="text3804"
             style="font-variant:normal;font-weight:bold;font-size:13px;font-family:Arial;-inkscape-font-specification:Arial-BoldMT;writing-mode:lr-tb;fill:#000000;fill-opacity:1;fill-rule:nonzero;stroke:none"
             transform="translate(166,35.296387)"><tspan
               id="tspan3802"
               y="0"
               x="0 9.3859997 17.316 24.544001 32.473999 40.403999 47.632 51.233002">Channel </tspan></text>
<text
             id="text3808"
             style="font-variant:normal;font-weight:bold;font-size:13px;font-family:Arial;-inkscape-font-specification:Arial-BoldMT;writing-mode:lr-tb;fill:#000000;fill-opacity:1;fill-rule:nonzero;stroke:none"
             transform="translate(178,50.245117)"><tspan
               id="tspan3806"
               y="0"
               x="0 9.3859997 17.316 25.246">Conf</tspan></text>
<text
             id="text3812"
             style="font-variant:normal;font-weight:bold;font-size:13px;font-family:Arial;-inkscape-font-specification:Arial-BoldMT;writing-mode:lr-tb;fill:#000000;fill-opacity:1;fill-rule:nonzero;stroke:none"
             transform="translate(228,35.296387)"><tspan
               id="tspan3810"
               y="0"
               x="0 9.3859997 17.316 24.544001 32.473999 40.403999 47.632 51.233002">Channel </tspan></text>
<text
             id="text3816"
             style="font-variant:normal;font-weight:bold;font-size:13px;font-family:Arial;-inkscape-font-specification:Arial-BoldMT;writing-mode:lr-tb;fill:#000000;fill-opacity:1;fill-rule:nonzero;stroke:none"
             transform="translate(240,50.245117)"><tspan
               id="tspan3814"
               y="0"
               x="0 9.3859997 17.316 21.645">Auth</tspan></text>
<text
             id="text3820"
             style="font-variant:normal;font-weight:bold;font-size:13px;font-family:Arial;-inkscape-font-specification:Arial-BoldMT;writing-mode:lr-tb;fill:#000000;fill-opacity:1;fill-rule:nonzero;stroke:none"
             transform="translate(303,35.296387)"><tspan
               id="tspan3818"
               y="0"
               x="0 9.3859997 16.614 20.943001">Data</tspan></text>
<text
             id="text3824"
             style="font-variant:normal;font-weight:bold;font-size:13px;font-family:Arial;-inkscape-font-specification:Arial-BoldMT;writing-mode:lr-tb;fill:#000000;fill-opacity:1;fill-rule:nonzero;stroke:none"
             transform="translate(302,50.245117)"><tspan
               id="tspan3822"
               y="0"
               x="0 9.3859997 17.316 21.645">Auth</tspan></text>
<text
             id="text3828"
             style="font-variant:normal;font-weight:bold;font-size:13px;font-family:Arial;-inkscape-font-specification:Arial-BoldMT;writing-mode:lr-tb;fill:#000000;fill-opacity:1;fill-rule:nonzero;stroke:none"
             transform="translate(352,35.296387)"><tspan
               id="tspan3826"
               y="0"
               x="0 9.3859997 17.316 24.544001 32.473999 40.403999 47.632 51.233002">Channel </tspan></text>
<text
             id="text3832"
             style="font-variant:normal;font-weight:bold;font-size:13px;font-family:Arial;-inkscape-font-specification:Arial-BoldMT;writing-mode:lr-tb;fill:#000000;fill-opacity:1;fill-rule:nonzero;stroke:none"
             transform="translate(364,50.245117)"><tspan
               id="tspan3830"
               y="0"
               x="0 9.3859997 17.316 25.246">Conf</tspan></text>
<text
             id="text3836"
             style="font-variant:normal;font-weight:bold;font-size:13px;font-family:Arial;-inkscape-font-specification:Arial-BoldMT;writing-mode:lr-tb;fill:#000000;fill-opacity:1;fill-rule:nonzero;stroke:none"
             transform="translate(414,35.296387)"><tspan
               id="tspan3834"
               y="0"
               x="0 9.3859997 17.316 24.544001 32.473999 40.403999 47.632 51.233002">Channel </tspan></text>
<text
             id="text3840"
             style="font-variant:normal;font-weight:bold;font-size:13px;font-family:Arial;-inkscape-font-specification:Arial-BoldMT;writing-mode:lr-tb;fill:#000000;fill-opacity:1;fill-rule:nonzero;stroke:none"
             transform="translate(426,50.245117)"><tspan
               id="tspan3838"
               y="0"
               x="0 9.3859997 17.316 21.645">Auth</tspan></text>
<text
             id="text3844"
             style="font-variant:normal;font-weight:normal;font-size:13px;font-family:Arial;-inkscape-font-specification:ArialMT;writing-mode:lr-tb;fill:#000000;fill-opacity:1;fill-rule:nonzero;stroke:none"
             transform="translate(3,77.24512)"><tspan
               id="tspan3842"
               y="0"
               x="0 7.9299998 16.587999 20.188999">TSIG</tspan></text>
<text
             id="text3848"
             style="font-variant:normal;font-weight:normal;font-size:13px;font-family:Arial;-inkscape-font-specification:ArialMT;writing-mode:lr-tb;fill:#000000;fill-opacity:1;fill-rule:nonzero;stroke:none"
             transform="translate(3,104.24512)"><tspan
               id="tspan3846"
               y="0"
               x="0 10.101 17.329 24.556999 31.785 35.386002 43.316002 50.543999">Oppo TLS</tspan></text>
<text
             id="text3852"
             style="font-variant:normal;font-weight:normal;font-size:13px;font-family:Arial;-inkscape-font-specification:ArialMT;writing-mode:lr-tb;fill:#000000;fill-opacity:1;fill-rule:nonzero;stroke:none"
             transform="translate(3,131.24512)"><tspan
               id="tspan3850"
               y="0"
               x="0 8.658 12.259 16.587999 19.474001 25.974001 29.575001 33.175999 41.105999 48.334">Strict TLS</tspan></text>
<text
             id="text3856"
             style="font-variant:normal;font-weight:normal;font-size:13px;font-family:Arial;-inkscape-font-specification:ArialMT;writing-mode:lr-tb;fill:#000000;fill-opacity:1;fill-rule:nonzero;stroke:none"
             transform="translate(3,158.24512)"><tspan
               id="tspan3854"
               y="0"
               x="0 10.829 18.056999 21.658001 28.886 36.113998 39 42.601002 50.530998 57.758999">mutual TLS</tspan></text>
<text
             id="text3860"
             style="font-variant:normal;font-weight:normal;font-size:13px;font-family:Arial;-inkscape-font-specification:ArialMT;writing-mode:lr-tb;fill:#000000;fill-opacity:1;fill-rule:nonzero;stroke:none"
             transform="translate(3,185.24512)"><tspan
               id="tspan3858"
               y="0"
               x="0 8.658 18.044001 25.271999 28.872999 36.101002 43.328999 46.93 57.758999 64.987 71.487 75.087997 82.316002">ACL on master</tspan></text>
</g></g></g></g></svg>